<svg width="952" height="214" viewBox="0 0 952 214" fill="none" xmlns="http://www.w3.org/2000/svg">
<path d="M191.2 188.96C191.2 197.493 187.627 203.787 180.48 207.84C173.333 211.893 162.453 213.92 147.84 213.92C140.693 213.92 134.667 213.44 129.76 212.48C124.96 211.627 121.013 210.347 117.92 208.64C114.933 206.933 112.747 204.853 111.36 202.4C110.08 199.947 109.44 197.173 109.44 194.08C109.44 189.6 110.667 186.08 113.12 183.52C115.68 181.067 119.253 179.253 123.84 178.08V176.48C121.067 175.413 118.827 173.92 117.12 172C115.52 170.08 114.72 167.573 114.72 164.48C114.72 160.427 116.107 157.387 118.88 155.36C121.653 153.227 125.227 151.627 129.6 150.56V149.76C124.587 147.413 120.693 144.107 117.92 139.84C115.147 135.573 113.76 130.453 113.76 124.48C113.76 120.107 114.56 116.16 116.16 112.64C117.76 109.013 120 105.973 122.88 103.52C125.867 100.96 129.387 98.9867 133.44 97.6C137.6 96.2134 142.24 95.52 147.36 95.52C153.12 95.52 158.293 96.4267 162.88 98.24V95.52C162.88 92.32 163.787 89.6534 165.6 87.52C167.413 85.3867 170.187 84.32 173.92 84.32H188.96V98.08H169.76V101.92C173.387 104.373 176.16 107.52 178.08 111.36C180 115.093 180.96 119.467 180.96 124.48C180.96 128.853 180.16 132.853 178.56 136.48C176.96 140 174.667 143.04 171.68 145.6C168.8 148.053 165.28 149.973 161.12 151.36C157.067 152.64 152.48 153.28 147.36 153.28C143.733 153.28 140.32 152.96 137.12 152.32C135.2 152.853 133.28 153.76 131.36 155.04C129.44 156.32 128.48 158.08 128.48 160.32C128.48 162.88 129.707 164.48 132.16 165.12C134.613 165.76 137.653 166.08 141.28 166.08H159.84C170.933 166.08 178.933 168.213 183.84 172.48C188.747 176.64 191.2 182.133 191.2 188.96ZM174.88 190.08C174.88 187.307 173.76 185.067 171.52 183.36C169.28 181.76 165.227 180.96 159.36 180.96H130.72C126.667 182.88 124.64 185.973 124.64 190.24C124.64 193.333 125.92 196 128.48 198.24C131.147 200.48 135.52 201.6 141.6 201.6H154.56C161.173 201.6 166.187 200.587 169.6 198.56C173.12 196.64 174.88 193.813 174.88 190.08ZM147.36 141.28C153.013 141.28 157.173 139.947 159.84 137.28C162.507 134.613 163.84 131.04 163.84 126.56V122.24C163.84 117.76 162.507 114.187 159.84 111.52C157.173 108.853 153.013 107.52 147.36 107.52C141.707 107.52 137.547 108.853 134.88 111.52C132.213 114.187 130.88 117.76 130.88 122.24V126.56C130.88 131.04 132.213 134.613 134.88 137.28C137.547 139.947 141.707 141.28 147.36 141.28Z" fill="#783737"/>
<path d="M249.057 82.4C244.577 82.4 241.431 81.4934 239.617 79.68C237.911 77.8667 237.057 75.6267 237.057 72.96V69.6C237.057 66.9334 237.911 64.6934 239.617 62.88C241.431 61.0667 244.524 60.16 248.897 60.16C253.377 60.16 256.471 61.0667 258.177 62.88C259.991 64.6934 260.897 66.9334 260.897 69.6V72.96C260.897 75.6267 259.991 77.8667 258.177 79.68C256.471 81.4934 253.431 82.4 249.057 82.4ZM212.097 165.92H240.257V111.52H212.097V97.44H257.697V165.92H284.097V180H212.097V165.92Z" fill="#783737"/>
<path d="M344.835 180C337.582 180 332.248 178.08 328.835 174.24C325.422 170.293 323.715 165.227 323.715 159.04V111.52H298.275V97.44H316.355C319.448 97.44 321.635 96.8534 322.915 95.68C324.195 94.4 324.835 92.16 324.835 88.96V68.32H341.155V97.44H376.355V111.52H341.155V165.92H376.355V180H344.835Z" fill="#783737"/>
<path d="M438.852 181.92C432.666 181.92 427.119 180.907 422.212 178.88C417.412 176.853 413.306 173.973 409.892 170.24C406.586 166.507 404.026 161.973 402.212 156.64C400.506 151.307 399.652 145.333 399.652 138.72C399.652 132.107 400.506 126.133 402.212 120.8C404.026 115.467 406.586 110.933 409.892 107.2C413.306 103.467 417.412 100.587 422.212 98.56C427.119 96.5334 432.612 95.52 438.692 95.52C447.226 95.52 454.052 97.3334 459.172 100.96C464.399 104.587 468.292 109.28 470.852 115.04L457.252 122.4C455.759 118.56 453.466 115.52 450.372 113.28C447.386 111.04 443.492 109.92 438.692 109.92C432.079 109.92 426.959 111.947 423.332 116C419.706 119.947 417.892 125.227 417.892 131.84V145.6C417.892 152.107 419.706 157.387 423.332 161.44C426.959 165.493 432.186 167.52 439.012 167.52C444.132 167.52 448.292 166.347 451.492 164C454.799 161.653 457.412 158.453 459.332 154.4L472.132 162.24C469.466 168 465.412 172.747 459.972 176.48C454.532 180.107 447.492 181.92 438.852 181.92Z" fill="#783737"/>
<path d="M495.75 165.92H523.11V75.68H495.75V61.6H540.55V165.92H567.91V180H495.75V165.92Z" fill="#783737"/>
<path d="M632.807 82.4C628.327 82.4 625.181 81.4934 623.367 79.68C621.661 77.8667 620.807 75.6267 620.807 72.96V69.6C620.807 66.9334 621.661 64.6934 623.367 62.88C625.181 61.0667 628.274 60.16 632.647 60.16C637.127 60.16 640.221 61.0667 641.927 62.88C643.741 64.6934 644.647 66.9334 644.647 69.6V72.96C644.647 75.6267 643.741 77.8667 641.927 79.68C640.221 81.4934 637.181 82.4 632.807 82.4ZM595.847 165.92H624.007V111.52H595.847V97.44H641.447V165.92H667.847V180H595.847V165.92Z" fill="#783737"/>
<path d="M725.385 181.92C719.092 181.92 713.438 180.907 708.425 178.88C703.412 176.853 699.198 173.973 695.785 170.24C692.372 166.507 689.758 162.027 687.945 156.8C686.132 151.467 685.225 145.493 685.225 138.88C685.225 132.267 686.132 126.293 687.945 120.96C689.865 115.627 692.478 111.093 695.785 107.36C699.198 103.52 703.305 100.587 708.105 98.56C712.905 96.5334 718.238 95.52 724.105 95.52C729.865 95.52 735.092 96.5334 739.785 98.56C744.478 100.48 748.478 103.253 751.785 106.88C755.092 110.507 757.598 114.827 759.305 119.84C761.118 124.853 762.025 130.4 762.025 136.48V143.04H702.825V145.76C702.825 152.267 704.852 157.6 708.905 161.76C712.958 165.813 718.558 167.84 725.705 167.84C731.038 167.84 735.572 166.72 739.305 164.48C743.145 162.133 746.238 159.04 748.585 155.2L759.465 164.8C756.692 169.6 752.425 173.653 746.665 176.96C741.012 180.267 733.918 181.92 725.385 181.92ZM724.105 108.8C721.012 108.8 718.132 109.333 715.465 110.4C712.905 111.467 710.665 113.013 708.745 115.04C706.932 116.96 705.492 119.253 704.425 121.92C703.358 124.587 702.825 127.52 702.825 130.72V131.84H744.265V130.24C744.265 123.733 742.398 118.56 738.665 114.72C735.038 110.773 730.185 108.8 724.105 108.8Z" fill="#783737"/>
<path d="M785.002 180V97.44H802.442V111.52H803.242C804.096 109.387 805.162 107.36 806.442 105.44C807.829 103.413 809.482 101.707 811.402 100.32C813.322 98.8267 815.562 97.6534 818.122 96.8C820.682 95.9467 823.669 95.52 827.082 95.52C835.402 95.52 842.122 98.24 847.242 103.68C852.362 109.12 854.922 116.853 854.922 126.88V180H837.482V129.44C837.482 116.32 831.776 109.76 820.362 109.76C818.122 109.76 815.936 110.08 813.802 110.72C811.669 111.253 809.749 112.107 808.042 113.28C806.336 114.453 804.949 115.947 803.882 117.76C802.922 119.573 802.442 121.653 802.442 124V180H785.002Z" fill="#783737"/>
<path d="M920.46 180C913.207 180 907.873 178.08 904.46 174.24C901.047 170.293 899.34 165.227 899.34 159.04V111.52H873.9V97.44H891.98C895.073 97.44 897.26 96.8534 898.54 95.68C899.82 94.4 900.46 92.16 900.46 88.96V68.32H916.78V97.44H951.98V111.52H916.78V165.92H951.98V180H920.46Z" fill="#783737"/>
<path d="M64 4C64 2.93913 63.5786 1.92172 62.8284 1.17157C62.0783 0.421427 61.0609 0 60 0C58.9391 0 57.9217 0.421427 57.1716 1.17157C56.4214 1.92172 56 2.93913 56 4V50.3467L31.7173 26.0533C31.3485 25.6711 30.9073 25.3662 30.4194 25.1563C29.9315 24.9465 29.4066 24.8359 28.8755 24.831C28.3444 24.8261 27.8176 24.9271 27.326 25.128C26.8343 25.3289 26.3875 25.6257 26.0118 26.0011C25.636 26.3765 25.3388 26.8229 25.1375 27.3144C24.9361 27.8059 24.8347 28.3326 24.839 28.8637C24.8434 29.3948 24.9535 29.9197 25.1629 30.4079C25.3723 30.896 25.6768 31.3375 26.0587 31.7067L50.3467 56H4C2.93913 56 1.92172 56.4214 1.17157 57.1716C0.421427 57.9217 0 58.9391 0 60C0 61.0609 0.421427 62.0783 1.17157 62.8284C1.92172 63.5786 2.93913 64 4 64H50.3467L26.0587 88.2827C25.3297 89.0367 24.926 90.047 24.9346 91.0957C24.9432 92.1445 25.3634 93.148 26.1047 93.89C26.846 94.632 27.8491 95.0531 28.8979 95.0627C29.9466 95.0723 30.9573 94.6696 31.712 93.9413L56 69.6587V116C56 117.061 56.4214 118.078 57.1716 118.828C57.9217 119.579 58.9391 120 60 120C61.0609 120 62.0783 119.579 62.8284 118.828C63.5786 118.078 64 117.061 64 116V69.6533L88.2827 93.9413C89.0367 94.6703 90.047 95.074 91.0957 95.0654C92.1445 95.0568 93.148 94.6366 93.89 93.8953C94.632 93.154 95.0531 92.1509 95.0627 91.1021C95.0723 90.0534 94.6696 89.0428 93.9413 88.288L69.6587 64H116C117.061 64 118.078 63.5786 118.828 62.8284C119.579 62.0783 120 61.0609 120 60C120 58.9391 119.579 57.9217 118.828 57.1716C118.078 56.4214 117.061 56 116 56H69.6533L93.9413 31.7173C94.3235 31.3485 94.6285 30.9073 94.8383 30.4194C95.0482 29.9315 95.1588 29.4066 95.1637 28.8755C95.1685 28.3444 95.0676 27.8176 94.8667 27.326C94.6658 26.8343 94.369 26.3875 93.9936 26.0118C93.6182 25.636 93.1717 25.3388 92.6802 25.1375C92.1887 24.9361 91.6621 24.8347 91.131 24.839C90.5998 24.8434 90.0749 24.9535 89.5868 25.1629C89.0987 25.3723 88.6572 25.6768 88.288 26.0587L64 50.3413V4Z" fill="#783737"/>
</svg>
